# xmcd
#
# Track frame offsets: 
#        150
#        24087
#        39089
#        56634
#        79374
#        93932
#        113769
#        132589
#        147812
#        163655
#        177420
#        189522
#        210502
#        228601
#        250311
#
# Disc length: 3696 seconds
#
# Revision: 0
# Processed by: cddbd v1.5.2PL0 Copyright (c) Steve Scherf et al.
# Submitted via: ExactAudioCopy v0.95b4
#
DISCID=c70e6e0f
DTITLE=Various Artist - Funk Gold [CD1]
DYEAR=2005
DGENRE=Funk
TTITLE0=James Brown - Get Up (I Feel Like Being A) Sex Machine
TTITLE1=The Meters - Look-Ka Py Py
TTITLE2=Charles Wright and The Watts 103rd Street Rhythm Band - Express 
TTITLE2=Yourself
TTITLE3=James Brown - Super Bad
TTITLE4=Aretha Franklin - Rock Steady
TTITLE5=Chakachas - Jungle Fever
TTITLE6=Billy Preston - Outa- Space
TTITLE7=Lyn Collins (The Female Preacher) - Think (About It)
TTITLE8=The J.B.'s - Pass The Peas
TTITLE9=Kool and The Gang - Funky Stuff
TTITLE10=The Temptations - Let Your Hair Down
TTITLE11=Rufus featuring Chaka Khan - Tell Me Something Good
TTITLE12=Average White Band - Pick Up The Pieces
TTITLE13=Ohio Players - Love Rollercoaster
TTITLE14=The Brothers Johnson - Get The Funk Out Ma Face
EXTD=
EXTT0=
EXTT1=
EXTT2=
EXTT3=
EXTT4=
EXTT5=
EXTT6=
EXTT7=
EXTT8=
EXTT9=
EXTT10=
EXTT11=
EXTT12=
EXTT13=
EXTT14=
PLAYORDER=
